<?xml version="1.0" standalone="no"?>
<!DOCTYPE svg PUBLIC "-//W3C//DTD SVG 20010904//EN"
 "http://www.w3.org/TR/2001/REC-SVG-20010904/DTD/svg10.dtd">
<svg version="1.0" xmlns="http://www.w3.org/2000/svg"
 width="1111.000000pt" height="1280.000000pt" viewBox="0 0 1111.000000 1280.000000"
 preserveAspectRatio="xMidYMid meet">
<g transform="translate(0.000000,1280.000000) scale(0.100000,-0.100000)"
fill="#000000" stroke="none">
<path d="M2898 12781 c-102 -40 -163 -96 -204 -186 -17 -38 -61 -278 -184
-1010 -88 -528 -163 -966 -166 -974 -6 -17 11 -18 -1004 44 -595 36 -760 43
-782 34 -15 -6 -37 -26 -49 -45 -23 -38 -16 68 -79 -1244 -38 -795 -64 -1335
-160 -3340 -22 -454 -53 -1111 -70 -1460 -17 -349 -48 -1008 -70 -1465 -22
-456 -56 -1161 -75 -1565 -19 -404 -39 -787 -46 -851 -12 -115 -11 -117 12
-159 43 -76 -12 -67 714 -110 849 -51 2492 -149 2660 -160 88 -6 462 -28 830
-50 369 -22 743 -44 833 -50 424 -26 866 -53 1817 -110 977 -58 992 -59 1090
-71 86 -10 92 -10 128 11 66 39 68 47 86 432 10 198 21 352 27 358 7 7 158
-21 465 -86 491 -103 505 -105 596 -62 61 29 125 94 156 159 30 63 -12 -179
861 5049 289 1730 591 3534 672 4010 80 476 148 880 151 898 6 37 -18 123 -54
195 -30 61 -93 124 -148 148 -24 10 -429 100 -901 200 -473 99 -931 195 -1019
214 -88 19 -1116 235 -2285 480 -1169 246 -2474 521 -2900 612 -426 90 -793
166 -815 168 -23 2 -60 -4 -87 -14z m432 -511 c227 -47 2668 -560 5215 -1096
589 -124 1295 -272 1570 -330 564 -118 575 -121 575 -135 0 -10 -289 -1741
-675 -4044 -79 -473 -318 -1897 -530 -3165 -212 -1268 -388 -2325 -393 -2350
-6 -35 -12 -46 -28 -48 -12 -2 -932 189 -2045 423 -1113 234 -2820 593 -3794
797 -973 204 -1776 377 -1783 383 -10 9 43 345 277 1746 397 2368 892 5329
1122 6709 105 630 196 1151 202 1158 5 7 17 10 26 8 9 -3 126 -28 261 -56z"/>
<path d="M4560 10257 c0 -1 -191 -1100 -425 -2442 -710 -4077 -739 -4244 -734
-4249 10 -9 695 -154 701 -148 3 4 18 75 33 157 679 3897 716 4125 846 5135
22 173 42 323 45 333 8 25 43 22 48 -5 3 -13 41 -169 85 -348 121 -491 272
-1009 473 -1620 137 -417 1468 -4304 1476 -4312 15 -15 752 -172 761 -162 5 5
47 232 94 504 47 272 246 1415 442 2540 196 1125 419 2403 495 2840 82 471
134 797 129 801 -20 12 -689 152 -696 146 -4 -4 -17 -65 -29 -135 -671 -3840
-733 -4227 -834 -5222 -31 -299 -40 -297 -115 26 -121 521 -266 1037 -462
1644 -100 312 -1492 4321 -1504 4334 -4 5 -190 49 -411 97 -396 87 -418 92
-418 86z"/>
</g>
</svg>
